<svg width="39" height="33" viewBox="0 0 39 33" fill="none" xmlns="http://www.w3.org/2000/svg">
<g clip-path="url(#clip0_1263_1041)">
<path fill-rule="evenodd" clip-rule="evenodd" d="M33.8206 0.718922C34.2812 0.525078 34.7853 0.458223 35.2804 0.525314C35.7756 0.592404 36.2437 0.790989 36.6361 1.1004C37.0285 1.40981 37.3307 1.81873 37.5114 2.2846C37.6922 2.75047 37.7447 3.25626 37.6636 3.74933L33.4367 29.3885C33.0266 31.8617 30.3131 33.2799 28.0449 32.048C26.1477 31.0174 23.3297 29.4295 20.7951 27.7727C19.5277 26.9433 15.6456 24.2875 16.1227 22.3977C16.5327 20.7819 23.0558 14.7099 26.7832 11.0998C28.2462 9.68155 27.579 8.86337 25.8513 10.168C21.5611 13.4071 14.6728 18.3329 12.3953 19.7195C10.3862 20.9421 9.33879 21.1509 8.08637 20.9421C5.80145 20.5619 3.6824 19.973 1.95287 19.2555C-0.384231 18.2863 -0.270544 15.0733 1.95101 14.1377L33.8206 0.718922Z" fill="white"/>
</g>
<defs>
<clipPath id="clip0_1263_1041">
<rect width="38" height="32" fill="white" transform="translate(0.242188 0.5)"/>
</clipPath>
</defs>
</svg>
